# xmcd
#
# Track frame offsets:
#        187
#        15580
#        33800
#        50382
#        64242
#        79785
#        98430
#        116872
#        138552
#        156250
#        177465
#        197810
#        219962
#        240515
#        266097
#        292747
#
# Disc length: 4153 seconds
#
# Revision: 0
# Processed by: cddbd v1.5.1PL0 Copyright (c) Steve Scherf et al.
# Submitted via: ExactAudioCopy v0.95a5
#
DISCID=da103710
DTITLE=Various Artist - PURE BALLADS vol.1
DYEAR=1999
DGENRE=Ballad
TTITLE0=EMILIA/BIG BIG WORLD
TTITLE1=TRISHA YEARWOOD/HOW DO I LIVE
TTITLE2=DEBERAH MORGAN/I LOVE YOU
TTITLE3=LISA LOEB&NINE STORIES/STAY(I MISSED YOU)
TTITLE4=SIMPLY RED/IF YOU DON'T KNOW ME BY NOW
TTITLE5=AQUA/TURN BACK TIME
TTITLE6=OLIVIA NEWTON-JOHN/I HONESTLY LOVE YOU
TTITLE7=BOBBY CALDWELL/HEART OF MINE
TTITLE8=K-CI and JOJO/LOVE BALLAD
TTITLE9=SAMANTHA COLE/WITHOUT YOU
TTITLE10=REGINA BELLE/NEVER SHOULD HAVE LET YOU GO
TTITLE11=IMMATURE/ALL ALONE
TTITLE12=BILLIE MYERS/KISS THE RAIN
TTITLE13=DIANA KRALL/THEY CAN'T TAKE THAT AWAY FROM ME
TTITLE14=GEORGE BENSON/THE LONG AND WINDING ROAD
TTITLE15=DIANA ROSS/IF WE HOLD ON TOGETHER
EXTD=
EXTT0=
EXTT1=
EXTT2=
EXTT3=
EXTT4=
EXTT5=
EXTT6=
EXTT7=
EXTT8=
EXTT9=
EXTT10=
EXTT11=
EXTT12=
EXTT13=
EXTT14=
EXTT15=
PLAYORDER=
